<svg xmlns="http://www.w3.org/2000/svg" width="176" height="80" fill="none" viewBox="0 0 176 80">
    <rect id="backgroundrect" width="100%" height="100%" x="0" y="0" fill="none" stroke="none" style="" class=""/>
    <path d="M10.688899880790707,59.925 C10.688899880790707,62.766999999999996 9.563899880790704,65.494 7.560299880790712,67.507 C5.556599880790712,69.52099999999999 2.8378998807907116,70.65600000000002 -1.1920928777442441e-7,70.66499999999999 V80 C2.6274998807907117,79.99600000000001 5.228499880790711,79.47300000000001 7.65429988079071,78.46199999999999 C10.080199880790712,77.44999999999999 12.28339988079071,75.97 14.138299880790711,74.106 C15.993099880790709,72.24199999999999 17.46319988079071,70.03 18.46469988079071,67.59700000000001 C19.46619988079071,65.16399999999999 19.979299880790713,62.557 19.974999880790712,59.925 V25.127600000000008 C16.713499880790707,26.5394 13.60249988079071,28.276899999999998 10.688899880790707,30.313699999999997 V59.925 zM156.02499988079072,20.0084 C153.33499988079072,19.898099999999992 150.65099988079072,20.333600000000004 148.1339998807907,21.288600000000002 C145.61599988079072,22.2435 143.31799988079072,23.698400000000007 141.37599988079072,25.565600000000003 C139.4339998807907,27.432900000000004 137.88899988079072,29.67410000000001 136.8329998807907,32.154500000000006 C135.7779998807907,34.635000000000005 135.23299988079071,37.304 135.23299988079071,40 C135.23299988079071,42.696 135.7779998807907,45.364999999999995 136.8329998807907,47.845 C137.88899988079072,50.32599999999999 139.4339998807907,52.56699999999999 141.37599988079072,54.434 C143.31799988079072,56.30200000000001 145.61599988079072,57.756000000000014 148.1339998807907,58.711 C150.65099988079072,59.666 153.33499988079072,60.102 156.02499988079072,59.992000000000004 H160.1999998807907 V50.69 H156.02499988079072 C153.9109998807907,50.69 151.8439998807907,50.062 150.0869998807907,48.885999999999996 C148.32899988079072,47.709 146.9589998807907,46.037000000000006 146.14999988079072,44.081 C145.34099988079072,42.123999999999995 145.12899988079073,39.97100000000001 145.5409998807907,37.894000000000005 C145.95399988079072,35.8176 146.97199988079072,33.909800000000004 148.46699988079072,32.412400000000005 C149.9619998807907,30.915000000000006 151.86599988079072,29.895300000000006 153.9399998807907,29.482200000000006 C156.01299988079072,29.069100000000006 158.16199988079072,29.281099999999995 160.11599988079072,30.091499999999996 C162.06899988079073,30.901799999999994 163.7379998807907,32.2742 164.91299988079072,34.03489999999999 C166.0869998807907,35.79559999999999 166.7139998807907,37.866 166.7139998807907,39.98300000000001 V59.992000000000004 H175.9999998807907 V39.98300000000001 C175.9999998807907,37.357 175.48299988079071,34.757099999999994 174.47899988079072,32.331500000000005 C173.4749998807907,29.905800000000006 172.0029998807907,27.702299999999994 170.1469998807907,25.846999999999994 C168.2919998807907,23.991799999999984 166.0899998807907,22.521100000000004 163.6669998807907,21.5193 C161.2429998807907,20.5174 158.6469998807907,20.004000000000005 156.02499988079072,20.0084 zM92.85999988079071,20.0084 C89.08399988079071,20.001600000000003 85.38499988079072,21.081699999999998 82.20459988079071,23.120000000000005 V0 H72.91859988079071 V59.992000000000004 H82.20459988079071 V39.98300000000001 C82.35719988079072,37.25100000000001 83.54809988079072,34.6819 85.53299988079071,32.802099999999996 C87.5169998807907,30.922200000000004 90.1449998807907,29.874700000000004 92.8769998807907,29.874700000000004 C95.60799988079071,29.874700000000004 98.23599988079071,30.922200000000004 100.22099988079071,32.802099999999996 C102.20499988079071,34.6819 103.39599988079071,37.25100000000001 103.54899988079072,39.98300000000001 V59.992000000000004 H112.83499988079069 V39.98300000000001 C112.83499988079069,37.357 112.31799988079071,34.757099999999994 111.3139998807907,32.331500000000005 C110.30999988079071,29.905800000000006 108.8379998807907,27.702299999999994 106.98299988079071,25.846999999999994 C105.1269998807907,23.991799999999984 102.92499988079071,22.521100000000004 100.5019998807907,21.5193 C98.07799988079071,20.5174 95.48199988079071,20.004000000000005 92.85999988079071,20.0084 V20.0084 zM119.81599988079071,59.992000000000004 H129.10199988079071 V30.313699999999997 C126.18399988079071,28.2838 123.07399988079072,26.5467 119.81599988079071,25.127600000000008 V59.992000000000004 zM45.96239988079071,20.0084 C43.27279988079071,19.898099999999992 40.58859988079071,20.333600000000004 38.07119988079071,21.288600000000002 C35.55379988079071,22.2435 33.25509988079071,23.698400000000007 31.313099880790702,25.565600000000003 C29.37109988079071,27.432900000000004 27.825899880790715,29.67410000000001 26.770399880790713,32.154500000000006 C25.714899880790718,34.635000000000005 25.17079988079071,37.304 25.17079988079071,40 C25.17079988079071,42.696 25.714899880790718,45.364999999999995 26.770399880790713,47.845 C27.825899880790715,50.32599999999999 29.37109988079071,52.56699999999999 31.313099880790702,54.434 C33.25509988079071,56.30200000000001 35.55379988079071,57.756000000000014 38.07119988079071,58.711 C40.58859988079071,59.666 43.27279988079071,60.102 45.96239988079071,59.992000000000004 H50.1377998807907 V50.69 H45.96239988079071 C43.84829988079072,50.69 41.78169988079071,50.062 40.02399988079071,48.885999999999996 C38.26619988079071,47.709 36.89619988079071,46.037000000000006 36.08709988079072,44.081 C35.27809988079073,42.123999999999995 35.06639988079072,39.97100000000001 35.47889988079072,37.894000000000005 C35.89129988079072,35.8176 36.90929988079071,33.909800000000004 38.40419988079072,32.412400000000005 C39.89909988079071,30.915000000000006 41.80369988079071,29.895300000000006 43.87709988079071,29.482200000000006 C45.95059988079071,29.069100000000006 48.0996998807907,29.281099999999995 50.052899880790704,30.091499999999996 C52.00599988079071,30.901799999999994 53.67539988079071,32.2742 54.849999880790705,34.03489999999999 C56.024499880790714,35.79559999999999 56.651399880790706,37.866 56.651399880790706,39.98300000000001 V59.992000000000004 H65.93739988079071 V39.98300000000001 C65.93739988079071,37.357 65.42049988079071,34.757099999999994 64.41619988079071,32.331500000000005 C63.41199988079072,29.905800000000006 61.94009988079071,27.702299999999994 60.08479988079071,25.846999999999994 C58.22949988079071,23.991799999999984 56.027199880790704,22.521100000000004 53.60399988079071,21.5193 C51.18069988079071,20.5174 48.583999880790714,20.004000000000005 45.96239988079071,20.0084 V20.0084 z"
          fill="white" id="svg_2" class=""/>
    <path fill-rule="evenodd" clip-rule="evenodd"
          d="M19.95249988079071,16.622299999999996 V10.666700000000013 H10.66649988079071 V21.340000000000007 C13.617099880790711,19.496499999999997 16.72449988079071,17.917800000000003 19.95249988079071,16.622299999999996 zM119.79399988079072,16.622299999999996 V10.666700000000013 H129.07999988079072 V21.340000000000007 C126.12199988079072,19.509699999999995 123.0159998807907,17.93160000000001 119.79399988079072,16.622299999999996 z"
          fill="#00A0E3" id="svg_3" class=""/>
</svg>
