<svg xmlns="http://www.w3.org/2000/svg" viewBox="0 0 64 64">
    <g fill="none" stroke="currentColor" stroke-width="4" stroke-linecap="round">
        <path d="M31.5 9.5V31.5"/>
        <path d="M31.5 13.5 22 23"/>
        <path d="M31.5 13.5 41 23"/>
        <path d="M31.5 31.5 21.5 41.5"/>
        <path d="M31.5 31.5 41.5 41.5"/>
        <path d="M10 14 19 23"/>
        <path d="M53 14 44 23"/>
        <path d="M10 33 19 24"/>
        <path d="M53 33 44 24"/>
        <path d="M10 53 19.5 43.5"/>
        <path d="M53 53 43.5 43.5"/>
    </g>
    <g fill="currentColor">
        <circle cx="31.5" cy="9.5" r="6"/>
        <circle cx="10" cy="14" r="6"/>
        <circle cx="53" cy="14" r="6"/>
        <circle cx="22" cy="23" r="6"/>
        <circle cx="41" cy="23" r="6"/>
        <circle cx="10" cy="33" r="6"/>
        <circle cx="53" cy="33" r="6"/>
        <circle cx="21.5" cy="41.5" r="6"/>
        <circle cx="41.5" cy="41.5" r="6"/>
        <circle cx="10" cy="53" r="6"/>
        <circle cx="53" cy="53" r="6"/>
    </g>
</svg>
